<?xml version="1.0" encoding="UTF-8"?>
<svg id="Ebene_1" xmlns="http://www.w3.org/2000/svg" version="1.1" viewBox="0 0 1280 1266">
  <!-- Generator: Adobe Illustrator 29.0.0, SVG Export Plug-In . SVG Version: 2.1.0 Build 186)  -->
  <defs>
    <style>
      .st0 {
        fill: #fff;
      }
    </style>
  </defs>
  <circle class="st0" cx="640" cy="633" r="633"/>
  <g>
    <path d="M620.3,41.7c0,1.8.5,2.3,2.2,2.3s3,.6,4,1.3c1.6,1.2,1.8,2.7,2.1,14.5.6,23.5-2.1,39.3-7.1,43.2-1.3,1.1-2.4,2.8-2.5,3.8-.2,1.8.6,1.9,12.8,1.9s12.9-.2,12.9-1.7-1.2-2.6-2.8-3.8c-1.5-1.2-3.5-3.7-4.2-5.5-2.2-5.2-3.4-18.9-3.1-33.9l.3-13.5,21.6,30.4c15.9,22.4,22.1,30.4,23.7,30.6l2.1.3v-20.4c0-31.4,2.2-43.7,7.9-46.4,1.6-.7,2.4-1.8,2.4-3.3q0-2.2-12.7-2.2h-12.7v2.3c0,1.3.8,2.7,2,3.4,4.6,2.4,7.4,15.9,7.4,35.5,0,11.8,2.3,14-20.2-17.8l-16.6-23.4h-19.5v2.3Z"/>
    <path d="M648.7,163.4c-2.2,10.4-8.4,40.4-13.9,66.8-5.4,26.3-14.3,68.9-19.7,94.7-5.3,25.8-15.3,73.4-22,106-14.5,70.2-15.7,75.6-16.1,76,0,0-30.9-19.8-68.2-44.3-60.7-39.8-68-44.4-69.3-43.1-1.2,1.3,3.3,8.6,43.1,69.3,24.5,37.3,44.5,67.9,44.5,68,0,.2-21.2,4.6-113.6,23.7-32.4,6.8-77.2,16-99.4,20.6-22.1,4.6-56.7,11.8-76.9,15.9-20.1,4.1-44.5,9.3-54.2,11.3-9.7,2.1-17.8,3.8-18,3.8-.3,0-.5,1.5-.5,3.3s.2,3.3.5,3.3,9.4,1.9,20.3,4.2c11,2.3,36.2,7.5,56.1,11.6,56.3,11.6,106.7,22.1,136,28.2,102.1,21.3,144.6,30,145.6,30,4.7,0,3.9,1.3-41,69.9-39.5,60.1-44.6,68.4-43.4,69.6s9.5-3.9,69.6-43.3c37.5-24.6,68.3-44.5,68.4-44.4s2.4,11.1,5.2,24.2c2.6,13.1,9.3,45,14.6,70.8,5.3,25.8,13.1,63.1,17.3,83,4.1,19.9,10.9,52.4,15,72.4,4.2,20.1,11,52.7,15.1,72.7,4.1,20.1,7.8,37.1,8.1,38s1.5,1.7,3.6,1.7h3l4.4-20.9c2.3-11.4,12-57.6,21.3-102.4,25.6-123.4,27.2-131,38.9-187,5.9-28.6,11-52.1,11.1-52.3.2-.2,30.6,19.6,67.6,43.8,37,24.3,67.7,44.2,68.3,44.4.5,0,1.3-.5,1.9-1.2.8-1.1-8.6-16-43.3-68.8-24.3-37-43.9-67.7-43.4-68.1.4-.4,16.4-3.8,35.4-7.8,19.1-3.9,57.1-11.8,84.4-17.4,27.4-5.7,76.3-15.8,108.8-22.6,32.5-6.8,75.7-15.7,95.9-19.9l36.9-7.7-.3-3.3-.3-3.2-23.9-5c-13.1-2.7-50.5-10.5-83-17.3-70.4-14.6-141-29.3-206.3-42.9-26.3-5.4-48-10-48.1-10.1-.2-.2,19.8-31,44.4-68.5,39.9-60.9,44.6-68.4,43.3-69.6-1.2-1.3-8.6,3.3-69.2,43-54.7,35.8-68,44.3-68.6,43-.4-.8-3.1-12.9-5.9-26.8-2.9-14-9.7-46.4-15-72.2-5.3-25.8-13.1-63.4-17.3-83.5-4.2-20.2-12-57.7-17.3-83.5-5.3-25.8-12-57.8-14.7-71l-5-24.2h-6.6l-3.9,19ZM652.2,403.5l-.5,222.9-38.4-38.4-38.4-38.4,1.1-4.5c.6-2.5,5.4-25.9,10.8-52,9-43.5,17.3-82.9,44.2-212.4,5.3-25.8,12.1-58.5,15-72.7,5.3-25.9,6-28.7,6.4-28,0,.2,0,100.7-.3,223.4ZM798.6,490c-30.8,30.6-55.9,55.6-56,55.5s-1.7-7.8-3.7-17c-2.8-13.7-3.2-17-2.2-17.5.7-.5,27.2-17.9,58.9-38.7,31.7-20.9,57.9-38,58.1-38,.3,0-24.6,25-55.2,55.7ZM565,548.6c0,.5-33.1,7.6-33.4,7.2,0,0-17.7-27-39.2-59.7l-39.1-59.5,55.8,55.8c30.8,30.7,55.9,56,55.9,56.3ZM786.7,564.9c40.2,8.3,61.5,12.8,186,38.5,122.3,25.4,138.5,28.8,138.9,29.2s-100.6.4-224.1.4h-224.5l38.9-38.9c24.9-24.9,39.4-38.7,40.3-38.5.8.3,20.8,4.5,44.5,9.4ZM609.2,677.3l-38.7,38.7-36.8-7.7c-53.1-11.1-213.2-44.3-290.9-60.4-22.1-4.6-41.2-8.5-42.2-8.7-1-.3,99.2-.5,222.7-.6h224.6c0,0-38.7,38.6-38.7,38.6ZM727.9,760.7c-4.4,21.3-12.5,60-17.9,86.1s-16.4,79-24.5,117.7c-8.1,38.6-17.1,82.3-20.2,97.1-3,14.7-5.7,27.6-5.9,28.6-.3,1-.5-98.7-.6-221.8v-223.7c0,0,38.5,38.6,38.5,38.6l38.5,38.5-8.1,38.8ZM817.8,773.8c21.1,32,38.7,58.9,39.2,59.7.4.8-24.6-23.8-55.6-54.8s-55.9-56.4-55.2-56.5c6.4-1.4,31.5-6.6,32.3-6.7.7,0,18.4,26.2,39.4,58.2ZM572.5,744.4c1.7,8.3,2.9,15.4,2.7,15.6-.5.5-89,58.5-106.3,69.7l-12.2,8,55.8-55.9c43-43.1,55.9-55.5,56.4-54.2.3.8,2,8.4,3.7,16.9Z"/>
    <path d="M39.8,601.5c0,1.6.8,2.7,2.5,3.6,3.7,1.8,6.2,7.6,16.8,38.9,9,26.7,9.4,27.5,11.7,27.5s2.9-.8,7.8-13.4c8-19.9,12.2-29.7,12.8-29.7s3.7,9.8,7.5,21.7l6.9,21.6,2.7-.3c2.6-.3,3.1-1.1,14.2-29,11.9-29.4,14.9-35.4,18.8-37.2,1.6-.8,2.3-1.9,2.3-3.5v-2.4l-12.8.3-12.9.3v2.3c0,1.9.6,2.4,2.8,2.6,4.6.6,5.4,1.9,4.9,7.7-.4,4.2-9,30.3-12.9,39.4-.9,2.1-2-.3-8.9-21.6-6-18.2-7.7-24.3-6.9-25.5.5-.9.9-2.5.9-3.6,0-1.8-.6-1.9-10.3-1.9h-10.3v2.6c0,2.2.6,2.8,3,3.5,7.3,2.2,7.2,12-.3,33.7-4.5,13-6.5,17.1-6.5,13.4s-3.4-11.4-7.5-24.1c-4.8-14.7-7.1-23.3-6.6-23.8s.9-1.9.9-3.1c0-2.2-.2-2.2-10.3-2.2h-10.3v2.3Z"/>
    <path d="M1198.1,600.3c-10.7,2.1-22.3,11.8-27.7,23.1-2.7,5.9-3,7.1-3,15.8,0,7.9.4,10.1,2.3,13.8,3.4,6.9,8.9,12.6,15.6,15.8,5.2,2.5,7,2.9,13.8,3,17.4.2,32.1-9.6,38.4-25.6,3.2-7.9,3-20.3-.4-27.4-6.8-14.6-22-21.9-39-18.5ZM1212,610.1c6,3.3,11.3,9.6,14.2,17,3,7.7,3.1,20.6.2,26.2-5.7,10.8-18.3,14.8-29.8,9.4-11.4-5.3-19.2-20.3-18.1-34.8.7-7,3.3-12.4,8.3-16.7,4.6-3.9,5.9-4.3,14.1-4,4.7.2,7.4.9,11.2,3Z"/>
    <path d="M655.8,1154.5c-11.2,1.7-19.6,9.8-19.6,18.9s2,10.1,17.4,21.1c9.8,6.8,12.6,10.3,12.6,15.7,0,8.1-9.4,13.3-16.9,9.4-3.9-2.1-7.3-6.9-8.5-12.5-.9-4.5-1.2-4.9-3.8-4.9h-2.8l.3,10.5.3,10.4,3.8,1.4c2.2.8,7.1,1.4,11.7,1.5,6.7,0,8.6-.3,12.2-2.2,8.8-4.6,14.1-11.8,14.1-19.3s-2.1-10-15.1-19.2c-11.7-8.3-14.9-12-14.9-17,0-10.7,15-11.5,19.3-1.2.8,1.8,1.3,4.2,1.3,5.5,0,2.1.4,2.3,3.3,2.3h3.3v-18.5l-5.3-1.1c-7.6-1.7-7.8-1.7-12.6-.9Z"/>
  </g>
</svg>