<?xml version="1.0" encoding="UTF-8"?>
<svg xmlns="http://www.w3.org/2000/svg" id="Layer_1" data-name="Layer 1" viewBox="0 0 24 24">
  <path d="M12.5,2.025V.5c0-.276-.224-.5-.5-.5s-.5,.224-.5,.5v1.525C5.667,2.289,1,7.103,1,13c0,6.065,4.935,11,11,11s11-4.935,11-11c0-5.897-4.667-10.711-10.5-10.975Zm0,20.949v-1.475c0-.276-.224-.5-.5-.5s-.5,.224-.5,.5v1.475c-5.114-.255-9.22-4.361-9.475-9.475h1.475c.276,0,.5-.224,.5-.5s-.224-.5-.5-.5h-1.475C2.28,7.385,6.386,3.28,11.5,3.025v1.475c0,.276,.224,.5,.5,.5s.5-.224,.5-.5v-1.475c5.114,.255,9.22,4.36,9.475,9.475h-1.475c-.276,0-.5,.224-.5,.5s.224,.5,.5,.5h1.475c-.255,5.114-4.361,9.22-9.475,9.475Zm.5-9.975c0,.552-.448,1-1,1s-1-.448-1-1,.448-1,1-1,1,.448,1,1Zm2.191-1.266c-.339-.884-1.041-1.585-1.882-1.906l-5.519-2.741c-.486-.185-1.036-.068-1.404,.299-.368,.368-.485,.92-.28,1.448l2.702,5.432c.34,.884,1.041,1.586,1.882,1.907l5.517,2.738c.151,.06,.312,.089,.475,.089,.353,0,.683-.137,.932-.386,.368-.368,.485-.921,.279-1.449l-2.701-5.431Zm1.715,6.173c-.08,.08-.255,.09-.293,.089-.003,0-.005,0-.003,0l-5.518-2.739c-.62-.238-1.112-.73-1.369-1.395l-2.702-5.432c-.045-.117-.017-.25,.072-.338,.088-.088,.223-.115,.296-.091l5.518,2.741c.621,.238,1.113,.73,1.37,1.394l2.701,5.431c.045,.117,.017,.251-.072,.34Z"/>
</svg>
