?xml version="1.0" encoding="utf-8"?>
<!-- Generator: Adobe Illustrator 27.9.6, SVG Export Plug-In . SVG Version: 9.03 Build 54986)  -->
<svg version="1.1" id="Layer_1" xmlns="http://www.w3.org/2000/svg" xmlns:xlink="http://www.w3.org/1999/xlink" x="0px" y="0px"
	 viewBox="0 0 22 22" style="enable-background:new 0 0 22 22;" xml:space="preserve">
<path d="M10.5,0C4.7,0.3,0,5.1,0,11c0,6.1,4.9,11,11,11s11-4.9,11-11c0-5.9-4.7-10.7-10.5-11 M11.5,21v-1.5c0-0.3-0.2-0.5-0.5-0.5
	s-0.5,0.2-0.5,0.5V21c-5.1-0.3-9.2-4.4-9.5-9.5h1.5C2.8,11.5,3,11.3,3,11s-0.2-0.5-0.5-0.5H1C1.3,5.4,5.4,1.3,10.5,1v1.5
	C10.5,2.8,10.7,3,11,3s0.5-0.2,0.5-0.5V1c5.1,0.3,9.2,4.4,9.5,9.5h-1.5c-0.3,0-0.5,0.2-0.5,0.5s0.2,0.5,0.5,0.5H21
	C20.7,16.6,16.6,20.7,11.5,21L11.5,21z M12,11c0,0.6-0.4,1-1,1s-1-0.4-1-1s0.4-1,1-1S12,10.5,12,11z M14.2,9.7
	c-0.3-0.9-1-1.6-1.9-1.9L6.8,5.1C6.3,4.9,5.8,5,5.4,5.4C5,5.8,4.9,6.3,5.1,6.8l2.7,5.4c0.3,0.9,1,1.6,1.9,1.9l5.5,2.7
	c0.2,0.1,0.3,0.1,0.5,0.1c0.4,0,0.7-0.1,0.9-0.4c0.4-0.4,0.5-0.9,0.3-1.4L14.2,9.7L14.2,9.7z M15.9,15.9C15.8,16,15.7,16,15.6,16
	c0,0,0,0,0,0l-5.5-2.7C9.5,13,9,12.5,8.7,11.9L6,6.4c0-0.1,0-0.2,0.1-0.3C6.2,6,6.3,6,6.4,6l5.5,2.7c0.6,0.2,1.1,0.7,1.4,1.4
	l2.7,5.4C16,15.7,16,15.8,15.9,15.9z M11,0"/>
</svg>
