<?xml version="1.0" encoding="UTF-8"?>
<!-- Uploaded to: SVG Find, www.svgrepo.com, Generator: SVG Find Mixer Tools -->
<svg fill="#000000" width="800px" height="800px" version="1.1" viewBox="144 144 512 512" xmlns="http://www.w3.org/2000/svg">
 <g>
  <path d="m574.18 572.55h-70.727c-3.5117 0-6.6055-2.3281-7.5703-5.7109-10.094-35.402-42.875-60.125-79.711-60.125h-32.348c-36.84 0-69.617 24.723-79.711 60.125-0.96875 3.3828-4.0586 5.7109-7.5703 5.7109h-70.727c-4.3516 0-7.8711-3.5195-7.8711-7.8711l-0.007813-98.938c0-2.9453 1.6445-5.6445 4.2578-6.9961 3.7227-1.9219 92.223-47.156 177.8-47.156s174.08 45.234 177.8 47.156c2.6133 1.3516 4.2578 4.0508 4.2578 6.9961v98.938c0 4.3516-3.5195 7.8711-7.8711 7.8711zm-64.977-15.742h57.102v-86.168c-18.594-8.9258-94.871-43.305-166.31-43.305-71.441 0-147.71 34.379-166.31 43.305v86.168h57.102c13.777-39.051 51.207-65.836 93.035-65.836h32.348c41.828 0 79.258 26.785 93.035 65.836z"/>
  <path d="m574.18 473.61c-1.2383 0-2.4766-0.29297-3.6133-0.875-0.87891-0.45312-88.891-45.402-170.57-45.402s-169.7 44.949-170.57 45.402c-2.4453 1.2539-5.3594 1.1523-7.7109-0.27734-2.3438-1.4219-3.7734-3.9727-3.7734-6.7188v-36.402c0-2.9453 1.6445-5.6445 4.2578-6.9961 3.7188-1.918 92.219-47.145 177.8-47.145s174.08 45.227 177.8 47.148c2.6133 1.3516 4.2578 4.0508 4.2578 6.9961v36.402c0 2.7461-1.4297 5.2969-3.7734 6.7188-1.2617 0.76562-2.6758 1.1484-4.0977 1.1484zm-174.18-62.023c68.641 0 139.17 29.105 166.31 41.613v-18.965c-18.598-8.9258-94.871-43.297-166.31-43.297s-147.71 34.371-166.31 43.297v18.965c27.145-12.508 97.668-41.613 166.31-41.613z"/>
  <path d="m250.64 425.84c-4.3516 0-7.8711-3.5195-7.8711-7.8711v-32.355c0-13.777 11.254-24.984 25.086-24.984 6.7109 0 13 2.5898 17.695 7.2891 4.7031 4.7031 7.2969 10.984 7.2969 17.695v19.281c0 4.3516-3.5195 7.8711-7.8711 7.8711-4.3516 0-7.8711-3.5195-7.8711-7.8711l-0.003906-19.281c0-2.5078-0.95312-4.8359-2.6836-6.5664-1.7305-1.7227-4.0586-2.6758-6.5664-2.6758-5.2344 0-9.3398 4.0586-9.3398 9.2422v32.355c0 4.3516-3.5195 7.8711-7.8711 7.8711z"/>
  <path d="m307.17 405.71c-4.3516 0-7.8711-3.5195-7.8711-7.8711v-27.746c0-13.828 11.207-25.086 24.984-25.086 6.5664 0 12.855 2.5898 17.703 7.2969 4.6875 4.543 7.3789 11.031 7.3789 17.789v19.281c0 4.3516-3.5195 7.8711-7.8711 7.8711-4.3516 0-7.8711-3.5195-7.8711-7.8711v-19.281c0-2.5586-0.92188-4.8672-2.5898-6.4883-1.3359-1.3008-3.6055-2.8516-6.75-2.8516-5.0977 0-9.2422 4.1914-9.2422 9.3398v27.746c0 4.3516-3.5195 7.8711-7.8711 7.8711z"/>
  <path d="m549.35 425.84c-4.3516 0-7.8711-3.5195-7.8711-7.8711v-32.355c0-5.1797-4.1055-9.2422-9.3398-9.2422-2.5078 0-4.8359 0.95312-6.5664 2.6758-1.7305 1.7305-2.6836 4.0586-2.6836 6.5664v19.281c0 4.3516-3.5195 7.8711-7.8711 7.8711-4.3516 0-7.8711-3.5195-7.8711-7.8711v-19.281c0-6.7109 2.5898-12.992 7.2969-17.695 4.6953-4.6953 10.984-7.2891 17.695-7.2891 13.828 0 25.086 11.207 25.086 24.984v32.355c-0.003906 4.3516-3.5234 7.8711-7.875 7.8711z"/>
  <path d="m492.82 405.71c-4.3516 0-7.8711-3.5195-7.8711-7.8711v-27.746c0-5.1523-4.1445-9.3398-9.2422-9.3398-3.1445 0-5.4102 1.5547-6.7578 2.8516-1.6602 1.6211-2.582 3.9297-2.582 6.4883v19.281c0 4.3516-3.5195 7.8711-7.8711 7.8711s-7.8711-3.5195-7.8711-7.8711v-19.281c0-6.7578 2.6914-13.246 7.3711-17.789 4.8594-4.7031 11.148-7.2969 17.711-7.2969 13.777 0 24.984 11.254 24.984 25.086v27.746c0.003907 4.3516-3.5195 7.8711-7.8711 7.8711z"/>
  <path d="m431.98 392.92c-4.3516 0-7.8711-3.5195-7.8711-7.8711v-44.773c0-6.4648-2.5078-12.484-7.0586-16.957-4.5664-4.6367-10.586-7.1445-17.051-7.1445-13.293 0-24.109 10.809-24.109 24.102v44.773c0 4.3516-3.5195 7.8711-7.8711 7.8711-4.3516 0-7.8711-3.5195-7.8711-7.8711v-44.773c0-21.973 17.883-39.844 39.852-39.844 10.715 0 20.727 4.1758 28.184 11.754 7.4961 7.3633 11.668 17.375 11.668 28.09v44.773c0 4.3516-3.5234 7.8711-7.8711 7.8711z"/>
  <path d="m574.18 437.21c-4.3516 0-7.8711-3.5195-7.8711-7.8711l-0.003906-80.645-110.16-34.395c-3.2891-1.0234-5.5273-4.0664-5.5273-7.5117v-29.559l-50.625-32.562-50.629 32.562v29.559c0 3.4453-2.2383 6.4883-5.5273 7.5117l-110.16 34.395v80.641c0 4.3516-3.5195 7.8711-7.8711 7.8711-4.3516 0-7.8711-3.5195-7.8711-7.8711l-0.003906-86.43c0-3.4453 2.2383-6.4883 5.5273-7.5117l110.16-34.395v-28.066c0-2.6758 1.3594-5.1719 3.6133-6.6172l58.504-37.621c2.5977-1.6758 5.918-1.6758 8.5195 0l58.504 37.621c2.2539 1.4453 3.6133 3.9453 3.6133 6.6172v28.066l110.16 34.395c3.2891 1.0234 5.5273 4.0664 5.5273 7.5117v86.43c-0.007812 4.3516-3.5273 7.875-7.8789 7.875z"/>
 </g>
</svg>